<svg xmlns="http://www.w3.org/2000/svg" version="1.1" xmlns:xlink="http://www.w3.org/1999/xlink" xmlns:svgjs="http://svgjs.dev/svgjs" width="1440" height="560" preserveAspectRatio="none" viewBox="0 0 1440 560"><g mask="url(&quot;#SvgjsMask1082&quot;)" fill="none"><rect width="1440" height="560" x="0" y="0" fill="url(&quot;#SvgjsLinearGradient1083&quot;)"></rect><circle r="6.72" cx="928.7900000000001" cy="452.82000000000005" filter="url(#SvgjsFilter1084)" fill="rgba(147, 143, 143, 0.58)"></circle><circle r="7.21" cx="445.60999999999996" cy="190.38" filter="url(#SvgjsFilter1084)" fill="rgba(147, 143, 143, 0.58)"></circle><circle r="8.74" cx="410" cy="196.14000000000001" filter="url(#SvgjsFilter1084)" fill="rgba(147, 143, 143, 0.58)"></circle><circle r="6.075" cx="1223.635" cy="111.515" filter="url(#SvgjsFilter1084)" fill="rgba(147, 143, 143, 0.58)"></circle><circle r="7.1" cx="81.64" cy="403.71000000000004" filter="url(#SvgjsFilter1084)" fill="rgba(147, 143, 143, 0.58)"></circle><circle r="7.88" cx="1167.47" cy="488.33" filter="url(#SvgjsFilter1084)" fill="rgba(147, 143, 143, 0.58)"></circle><circle r="8.72" cx="849.72" cy="337.12" filter="url(#SvgjsFilter1084)" fill="rgba(147, 143, 143, 0.58)"></circle><circle r="7.16" cx="596.1999999999999" cy="250.46" filter="url(#SvgjsFilter1084)" fill="rgba(147, 143, 143, 0.58)"></circle><circle r="5.495" cx="424.695" cy="60.845" filter="url(#SvgjsFilter1084)" fill="rgba(147, 143, 143, 0.58)"></circle><circle r="8.805" cx="855.0949999999999" cy="467.265" filter="url(#SvgjsFilter1084)" fill="rgba(147, 143, 143, 0.58)"></circle><circle r="7.265" cx="484.515" cy="454.78499999999997" filter="url(#SvgjsFilter1084)" fill="rgba(147, 143, 143, 0.58)"></circle><circle r="6.835" cx="219.26500000000001" cy="159.935" filter="url(#SvgjsFilter1084)" fill="rgba(147, 143, 143, 0.58)"></circle><circle r="5.835" cx="1032.255" cy="526.255" filter="url(#SvgjsFilter1084)" fill="rgba(147, 143, 143, 0.58)"></circle><circle r="6" cx="444.29" cy="154.1" filter="url(#SvgjsFilter1084)" fill="rgba(147, 143, 143, 0.58)"></circle><circle r="4.68" cx="1298.48" cy="405.83" filter="url(#SvgjsFilter1084)" fill="rgba(147, 143, 143, 0.58)"></circle><circle r="5.865" cx="747.515" cy="238.715" filter="url(#SvgjsFilter1084)" fill="rgba(147, 143, 143, 0.58)"></circle><circle r="8.355" cx="1096.055" cy="70.915" filter="url(#SvgjsFilter1084)" fill="rgba(147, 143, 143, 0.58)"></circle><circle r="8.85" cx="814.97" cy="492.91" filter="url(#SvgjsFilter1084)" fill="rgba(147, 143, 143, 0.58)"></circle><circle r="8.265" cx="30.025000000000002" cy="265.625" filter="url(#SvgjsFilter1084)" fill="rgba(147, 143, 143, 0.58)"></circle><circle r="7.87" cx="573.87" cy="411.29" filter="url(#SvgjsFilter1084)" fill="rgba(147, 143, 143, 0.58)"></circle><path d="M997.8 413L962.3 376.2 963.1 357.5 975 370C975.9 371.7 977.9 371.3 979.6 370.4 980.4 369.2 980.6 366.9 979.4 366.1L963.3 348.7 963.5 330.3 979 340 984.5 363.3C984.5 363.3 984.8 363.9 984.8 363.9 985.4 365 987.1 365.5 988.6 365.5 990.2 364.5 991.1 363.4 990.7 361.4L986.6 344.6 1002.2 354.4 1014.6 403.7C1014.6 403.7 1014.4 404.6 1014.4 404.6 1015 405.7 1016.7 406.2 1018.2 406.2 1020.1 405.8 1021.2 403.8 1020.3 402.1L1009.8 358.9 1029.1 370.2 1033.9 389.5C1033.9 389.5 1033.9 389.5 1034.2 390.1 1034.8 391.2 1036 392 1037.4 392 1039.1 391.1 1040.4 389.6 1040.1 387.6L1036.7 374.8 1050.8 383.2C1052.3 384.6 1054 383.6 1054.8 382.5 1056.2 381 1055.8 379 1053.8 377.9L1040.3 369.3 1052.8 366.8C1054.4 365.9 1055.8 364.4 1054.9 362.7 1054.5 360.7 1053.4 359.9 1051.4 360.2L1032.1 365 1013.3 353.4 1057 342.6C1058.4 342.5 1059.5 340.5 1059.2 338.5 1058.5 337.4 1057.1 336 1055.1 336.3L1005.7 348.8 990.1 339.1 1006.9 335C1008.9 334.6 1009.4 332.9 1009 330.9 1009 329.5 1006.9 328.4 1005.5 328.5L982.5 334.5 966.4 325.1 982.7 316.1 1005.3 322.7C1007 323.2 1008.7 322.3 1009.2 320.6 1010 319.4 1008.8 317.2 1007.1 316.7L990.6 311.8 1006.8 302.9 1055.8 317.7C1057.5 318.2 1059.2 317.3 1059.7 315.5 1060.2 313.8 1059.3 312.1 1057.6 311.6L1014.7 298.6 1033.8 288.2 1052.9 293.7C1054.6 294.3 1056.3 293.3 1056.8 291.6 1057.3 289.9 1056.4 288.2 1054.7 287.7L1042.2 283.5 1056.2 275.9C1057.9 274.9 1058.4 273.2 1057.5 271.5 1056.6 269.8 1054.8 269.3 1053.2 270.2L1039.1 277.9 1042.7 265.8C1043.2 264 1042.3 262.3 1040.5 261.8S1037.1 262.3 1036.6 264L1031.3 282.2 1011.6 293 1024.1 250.4C1024.6 248.7 1023.6 247 1021.9 246.5 1020.2 246 1018.5 246.9 1018 248.7L1003.8 297.3 987.5 306.2 992.3 289.7C992.8 288 991.9 286.3 990.2 285.8 988.4 285.3 986.7 286.2 986.2 287.9L979.6 310.5 963.9 319.1 964.4 301.4 981.5 284.7C982.3 283.5 982.5 281.2 981.4 280.4 979.9 279 978.4 279.1 976.8 280L964.3 291.9 964.8 274.1 1001.6 238.7C1002.9 237.2 1002.9 235.8 1002 234.1 1000.5 232.7 998.5 233.1 997.4 233.7L964.7 264.7 965.6 242.3 979.4 228.9C981.1 228 980.8 226 979.8 224.3 978.7 223.5 976.4 223.3 975 224.8L965.9 233.4 965.8 217.4C966.3 215.6 964.8 214.3 962.6 214.1 961.1 214.1 959.7 215.6 959.8 217L959.3 233.4 950.3 223.7C948.8 222.3 946.8 222.7 946 223.9 944.3 224.8 944.4 226.2 945 227.3 945.3 227.9 945.3 227.9 945.6 228.4L959 242.3 958.1 264.6 927.4 232.6C926.5 230.9 924.5 231.2 922.8 232.2 922 233.3 922.1 234.8 922.7 235.9 923 236.5 923 236.5 923 236.5L958.2 274.1 957.7 291.9 945.8 279.4C944.3 278 942.9 278.1 941.2 279 940.4 280.2 939.9 281.9 940.5 283.1 940.8 283.6 940.8 283.6 941.1 284.2L957.8 301.3 957.3 319.1 942.1 309.9 936.1 286.9C935.7 285 933.7 283.9 932.2 283.9 930.5 284.9 929.2 286.3 930.1 288L934.2 304.8 918.4 295.9 906.2 245.7C906.1 244.2 904.1 243.2 902.6 243.2 901 244.2 899.6 245.6 899.9 247.6L910.4 290.8 891.7 279.2 887.2 260.4C886.9 258.4 884.8 257.4 883.2 258.3 881.7 258.3 880.3 259.8 880.7 261.8L884 274.6 870 266.2C868.8 265.4 866.8 265.8 865.4 267.3 865.2 268.1 865.2 269.6 865.9 270.7 865.9 270.7 866.2 271.2 866.5 271.8L880.5 280.2 867.8 283.5C866.3 283.5 865.3 285.6 865.3 287 865.6 287.6 865.6 287.6 865.6 287.6 866.6 289.3 868.3 289.8 869.4 289.2L888.2 284.7 907.5 296 863.8 306.8C862.1 307.8 861.3 308.9 861.6 310.9 861.6 310.9 861.9 311.5 861.9 311.5 862.6 312.6 863.7 313.4 865.7 313.1L915.4 301.2 930.6 310.4 913.9 314.4C912.2 315.3 910.8 316.8 911.8 318.5 911.2 318.8 911.5 319.4 911.5 319.4 912.1 320.5 913.9 321 915.3 321L938.3 314.9 953.8 324.7 938.1 333.3 915.5 326.7C913.8 326.2 911.5 327.4 911 329.1 911.1 330.6 912 332.2 913.2 333.1L930.2 337.6 914 346.5 865.3 332.3C863.6 331.8 861.9 332.7 861.4 334.4 860.9 336.2 861.8 337.8 863.5 338.4L906.1 350.8 886.4 361.6 868.2 356.2C866.5 355.7 864.8 356.6 864.3 358.4S864.7 361.8 866.4 362.3L878.6 365.9 864.6 373.5C862.9 374.5 862.4 376.2 863.3 377.9 864.2 379.6 865.9 380.1 867.6 379.2L881.7 371.5 878.4 384.2C878.2 385.1 877.9 385.9 878.2 386.5 878.5 387.1 879.7 387.9 880.6 388.1 882.3 388.6 884 387.7 884.5 386L889.5 367.2 909.2 356.4 897 399.5C896.8 400.4 896.5 401.3 896.8 401.8 897.1 402.4 898.3 403.2 899.2 403.5 900.9 404 902.6 403.1 903.1 401.3L917 352.1 933.3 343.2 927.9 360C927.7 360.9 928.3 362 928.6 362.6 928.9 363.1 929.2 363.7 930.1 363.9 931.8 364.4 934.1 363.2 934 361.8L941.2 338.9 956.9 330.3 956.7 348.6 939.3 364.7C938.5 365.9 937.9 367.6 938.6 368.8 938.9 369.3 938.9 369.3 939.4 369 940.3 370.7 942.6 370.9 944 369.4L956.5 357.5 956.3 375.8 918.7 411C917.8 412.2 917.9 413.7 918.5 414.8 918.8 415.3 918.8 415.3 918.8 415.3 920.3 416.7 922 417.2 923.4 415.7L956.1 384.7 955.2 407.1 941.4 420.5C940 422 940 423.4 940.6 424.5 940.6 424.5 941 425.1 941 425.1 942.4 426.5 944.4 426.1 945.6 425.5L954.9 416 954.4 432.3C954.7 432.9 955 433.5 955.3 434 955.6 434.6 956.8 435.4 957.7 435.7 959.7 435.3 961.3 434.4 961 432.4L961.5 416 970.5 425.7C972 427.1 974 426.7 975.1 426.1 976.5 424.6 976.1 422.6 975.2 421L961.8 407.1 962.1 385.1 992.8 417.2C994.3 418.5 996.6 418.7 997.4 417.6 998.8 416.1 999.3 414.3 997.8 413Z" fill="rgba(147, 143, 143, 0.58)"></path><path d="M458.3 563L423.4 547.3 418.7 534.1 430.5 539.4C431.6 540.3 432.9 539.5 433.8 538.4 434 537.4 433.5 535.7 432.5 535.5L416.4 527.8 411.4 515 424.9 517.4 435.2 532.1C435.2 532.1 435.6 532.4 435.6 532.4 436.3 533 437.7 532.9 438.7 532.5 439.6 531.4 439.8 530.3 439 529L431.5 518.5 445.1 520.9 467.5 551.8C467.5 551.8 467.6 552.5 467.6 552.5 468.3 553.1 469.7 553 470.6 552.6 471.9 551.7 472.1 550 471 549.1L451.6 522 468.3 524.5 476.9 536.6C476.9 536.6 476.9 536.6 477.3 536.9 478 537.5 479.1 537.8 480.1 537.3 481 536.2 481.5 534.8 480.7 533.5L474.8 525.5 487 527.4C488.4 528 489.3 526.9 489.5 525.8 490.1 524.4 489.3 523.1 487.5 523L475.7 520.7 483.7 515.5C484.7 514.4 485.2 512.9 484.1 512 483.3 510.7 482.2 510.5 481 511.3L468.8 520 452.5 517.1 479.9 497.4C480.9 497 481.1 495.3 480.3 494 479.6 493.4 478.1 492.8 476.8 493.6L446 516.1 432.4 513.6 442.9 506.1C444.2 505.3 444.1 504 443.3 502.7 442.8 501.7 441.1 501.5 440.1 502L425.8 512.6 412 510.5 420.8 499.8 438.4 498.1C439.8 497.9 440.7 496.8 440.5 495.5 440.8 494.4 439.3 493.2 437.9 493.3L425.1 494.6 434 483.8 472.2 480.5C473.5 480.3 474.4 479.2 474.3 477.9 474.2 476.5 473 475.6 471.7 475.7L438.2 478.6 448.6 466 463.5 464.6C464.8 464.5 465.7 463.3 465.6 462 465.5 460.6 464.3 459.7 463 459.9L453.2 460.5 460.8 451.2C461.7 450.1 461.6 448.7 460.5 447.8 459.3 446.9 458 447 457.1 448.2L449.5 457.4 448.5 448C448.4 446.6 447.3 445.7 445.9 445.8S443.7 447.1 443.8 448.4L445.2 462.6 434.5 475.6 431.3 442.5C431.2 441.1 430.1 440.2 428.7 440.3 427.4 440.5 426.4 441.6 426.6 442.9L430.2 480.8 421.4 491.5 420.2 478.7C420 477.3 418.9 476.4 417.6 476.6 416.2 476.7 415.3 477.8 415.4 479.1L417.1 496.7 408.6 507.1 404 494.6 411.2 478.2C411.5 477.1 411 475.5 409.9 475.2 408.5 474.7 407.5 475.1 406.6 476.3L401.3 488 396.7 475.5 412.4 440.6C412.9 439.2 412.5 438.2 411.4 437.3 409.9 436.7 408.6 437.5 408 438.3L394 469 388.3 453.1 394.2 439.9C395.1 438.8 394.3 437.5 393.2 436.6 392.2 436.4 390.5 436.9 390 438.3L386 446.9 381.5 435.7C381.4 434.4 380 433.8 378.3 434.3 377.3 434.8 376.8 436.2 377.2 437.2L381.4 448.7 372.5 444.4C371.1 443.9 369.8 444.7 369.6 445.8 368.6 446.9 369.1 447.8 369.8 448.5 370.2 448.8 370.2 448.8 370.6 449.1L383.7 454.9 389.4 470.8 359 457C357.9 456.1 356.7 456.9 355.7 458 355.5 459.1 355.9 460 356.7 460.6 357 460.9 357 460.9 357 460.9L392.1 477.3 396.7 489.8 384.9 484.5C383.5 484 382.5 484.4 381.6 485.5 381.4 486.5 381.5 487.9 382.2 488.5 382.6 488.8 382.6 488.8 383 489.1L399.4 496.4 404 508.9 390.8 506.8 380.2 492.5C379.4 491.2 377.7 491 376.7 491.4 375.8 492.5 375.3 494 376.4 494.9L383.9 505.4 370.4 503.6 347.9 472.1C347.5 471.1 345.7 470.9 344.8 471.4 343.8 472.5 343.3 473.9 344.1 475.2L363.4 502.3 347.1 499.4 338.8 487.6C338 486.3 336.3 486.2 335.4 487.3 334.4 487.7 333.9 489.1 334.7 490.4L340.6 498.4 328.4 496.5C327.4 496.2 326.1 497 325.6 498.5 325.6 499.1 326.1 500.1 326.8 500.7 326.8 500.7 327.2 501 327.6 501.3L339.7 503.2 331.7 509.1C330.7 509.5 330.6 511.3 331 512.2 331.4 512.5 331.4 512.5 331.4 512.5 332.5 513.5 333.8 513.3 334.4 512.6L346.3 504.3 362.9 506.8 335.5 526.5C334.5 527.6 334.3 528.6 335.1 529.9 335.1 529.9 335.5 530.2 335.5 530.2 336.2 530.8 337.3 531.1 338.5 530.3L369.8 508.1 383 510.3 372.5 517.8C371.5 518.9 371 520.3 372.1 521.2 371.8 521.6 372.2 521.9 372.2 521.9 372.9 522.5 374.3 522.4 375.2 521.9L389.6 511.3 403.1 513.8 394.6 524.1 377 525.8C375.6 526 374.4 527.5 374.6 528.8 375 529.8 376.1 530.7 377.1 530.9L390.3 529.3 381.4 540.1 343.6 543.8C342.3 543.9 341.3 545 341.5 546.4 341.6 547.7 342.7 548.6 344.1 548.5L377.2 545.3 366.5 558.2 352.3 559.6C351 559.8 350 560.9 350.2 562.2S351.4 564.5 352.8 564.3L362.2 563.4 354.6 572.7C353.7 573.8 353.8 575.2 354.9 576.1 356 577 357.4 576.9 358.3 575.7L365.9 566.5 367.2 576.2C367.3 576.9 367.4 577.6 367.7 577.9 368.1 578.2 369.1 578.4 369.8 578.4 371.2 578.2 372.1 577.1 372 575.8L370.2 561.3 380.9 548.3 384.5 581.7C384.5 582.4 384.6 583.1 385 583.4 385.3 583.7 386.4 583.9 387.1 583.9 388.4 583.7 389.3 582.6 389.2 581.3L385.2 543.1 394 532.4 394.9 545.6C395 546.3 395.7 546.9 396.1 547.2 396.5 547.5 396.9 547.8 397.5 547.7 398.9 547.6 400.1 546.1 399.7 545.1L398.3 527.2 406.8 516.8 411.8 529.6 404.2 545.7C403.9 546.8 404 548.1 404.8 548.7 405.2 549 405.2 549 405.5 548.7 406.6 549.6 408.2 549.1 408.8 547.7L414.1 535.9 419.1 548.7 402.7 583.7C402.5 584.8 402.9 585.7 403.7 586.3 404 586.6 404 586.6 404 586.6 405.5 587.2 406.8 587.1 407.4 585.6L421.4 555 427.1 570.8 421.2 584C420.6 585.4 421.1 586.4 421.8 587 421.8 587 422.2 587.3 422.2 587.3 423.6 587.8 424.9 587 425.5 586.3L429.4 577 433.6 588.6C433.9 588.9 434.3 589.2 434.7 589.5 435 589.8 436.1 590 436.8 589.9 438 589.1 439 588 438.2 586.7L434 575.2 442.9 579.5C444.3 580 445.6 579.2 446.2 578.5 446.8 577 446 575.8 444.8 574.8L431.7 569 425.7 553.5 456 567.3C457.5 567.8 459.1 567.3 459.4 566.3 459.9 564.9 459.8 563.5 458.3 563Z" fill="rgba(147, 143, 143, 0.58)"></path><path d="M1394 595.2L1378.6 582.3 1391.1 577.2C1392.4 576.8 1393.4 575 1393 573 1392 571.5 1390.2 570.6 1388.8 571L1372.2 577.4 1358 565.4 1391.8 552.7C1393.9 551.7 1394.8 549.9 1393.8 548.5 1393.4 546.5 1391.6 545.5 1389.5 546.5L1352.3 560.6 1339 550 1345.3 511.5 1359.1 505.9 1391.7 533.2C1392.3 533.3 1392.9 533.4 1393.6 533.5 1394.2 533.6 1395.6 533.2 1396.3 532.7 1397.9 531 1397.5 529 1395.7 528L1366.1 503.2 1383.3 496.9 1398.8 509.1C1398.7 509.7 1399.3 509.8 1400 509.9 1401.2 510.1 1402.6 509.7 1403.4 508.5 1404.3 507.4 1403.9 505.4 1402.9 503.9L1390.2 494.1 1411.6 485.9C1413 485.4 1413.9 483.7 1413.6 481.7 1412.5 480.2 1410.7 479.3 1409.4 479.7L1389.3 487.5 1391.5 474.2C1391.8 472.3 1390.1 470.7 1388.8 470.5 1386.9 470.2 1384.8 471.2 1384.5 473.1L1381.8 490.1 1364.5 496.4 1370.2 461.1C1370.6 459.2 1369.5 457.7 1367.6 457.4 1365.7 457.1 1364.2 458.1 1363.9 460L1357.6 499.2 1343 505.3 1312.7 480.3 1315 465.8 1353 451.1C1355 450.8 1356.1 448.4 1355 446.9 1354.7 444.9 1352.8 444.6 1350.8 445L1316.3 458.2 1319.2 439.9 1336.4 433.6C1337.8 433.1 1338.8 430.7 1338.4 429.3S1335.6 426.9 1333.6 427.3L1320.4 432.3 1324 410.2C1324.3 408.3 1322.6 406.7 1320.7 406.4 1319.5 406.2 1317.4 407.1 1317.1 409L1313.5 431.2 1302 422.2C1300.8 421.3 1298.9 421 1297.3 422.7 1296.5 423.9 1296.7 426.5 1297.9 427.3L1312.3 438.7 1309.3 457.1 1280.7 433.6C1278.9 432.7 1277 432.4 1275.4 434.1 1274.6 435.3 1274.8 437.9 1276 438.7L1308.1 464.6 1305.7 479.2 1269.1 493.4 1257.2 483 1263.5 443.8C1263.8 441.9 1262.7 440.5 1260.8 440.2 1258.9 439.9 1256.8 440.8 1256.5 442.7L1250.8 478.1 1236.4 466.7 1239.2 449.6C1239.5 447.7 1238.4 446.3 1236.5 446 1234.6 445.7 1233.2 446.7 1232.9 448.6L1230.7 461.9 1214.1 448.2C1213 447.4 1210.4 447.6 1209.5 448.7 1208.6 450.5 1208.3 452.4 1210.1 453.4L1227.2 467.8 1212.7 473.2C1211.2 474.3 1210.3 476.1 1210.7 477.5 1211.1 478.8 1212.3 479.7 1213.6 479.9 1213.6 479.9 1214.2 480 1214.9 479.4L1233.5 472.7 1247.9 484.1 1211.9 498.4C1209.9 498.7 1208.9 500.5 1209.9 502.6 1210.4 503.4 1211 504.1 1212.2 504.3 1212.9 504.4 1213.5 504.5 1214.1 504.6L1253.6 488.9 1265 498.5 1258.8 537.1 1242.9 543 1212 517.9C1210.3 516.3 1208.3 516.6 1207.4 518.4 1205.9 519.5 1206.2 521.5 1207.9 523L1236 545.7 1218.7 552.7 1205 541.4C1203.8 540.5 1201.8 540.9 1200.3 541.9 1199.4 543.7 1199.1 545.6 1200.9 546.5L1211.1 555.3 1192.4 562.7C1190.4 563 1190.1 564.9 1190.5 566.9 1191 567.6 1192.2 568.5 1193.4 568.7 1193.4 568.7 1194.1 568.8 1194.7 568.9L1214.7 561.1 1212.2 576.9C1212 578.2 1212.9 580.3 1214.8 580.6 1216.7 580.9 1218.3 579.2 1218.5 577.9L1221.7 558.3 1239 551.4 1232.8 589.9C1232.5 591.8 1234.2 593.4 1236.1 593.7S1239.4 592.9 1239.7 591.1L1246.6 548.7 1261 543.3 1291.4 568.3 1288.7 584.7 1250.1 599.2C1248.6 600.3 1247.7 602.1 1248 604.1 1248.5 604.8 1249.7 605.6 1251 605.8 1251.6 605.9 1252.2 606 1253 605.5L1287.5 592.3 1284.5 610.6 1267.2 617.5C1265.9 618 1264.9 619.7 1265.2 621.7 1266.3 623.2 1268.1 624.2 1269.5 623.7L1283.3 618.2 1280.1 638.4C1279.9 639.7 1281.5 641.9 1282.7 642.1 1284.6 642.4 1286.8 640.8 1287 639.5L1290.3 619.3 1301.1 628.8C1301.7 628.9 1302.3 629 1303 629.1 1304.2 629.3 1305.6 628.9 1306.3 628.4 1307.3 626.6 1306.9 624.6 1305.9 623.1L1291.5 611.7 1294.5 593.4 1323.1 616.8C1324.8 618.4 1326.8 618.1 1327.6 616.9 1329.2 615.2 1328.9 613.2 1327.8 611.7L1295.7 585.8 1298.3 569.4 1335 555.2 1347 564.9 1340.2 607.3C1339.9 609.1 1340.9 610.6 1342.8 610.9 1344.7 611.2 1346.2 610.2 1346.5 608.3L1352.7 569.7 1367 581.8 1363.8 601.3C1363.6 602.6 1365.2 604.8 1367.1 605.1 1369 605.4 1370.6 603.7 1370.8 602.5L1373.3 586.7 1389.9 600.4C1390.6 600.5 1390.6 600.5 1391.2 600.6 1392.5 600.8 1393.8 600.3 1394.5 599.8 1395.5 598 1395.2 596 1394 595.2ZM1299.5 561.8L1295.5 563.1 1292.6 560.7 1268 540.5 1265.1 538.1 1265.7 534.3 1270.7 503.3 1271.3 499.6 1274.8 498.2 1304.5 486.8 1308 485.4 1311.5 487.9 1335.5 508 1338.9 510.5 1338.3 514.3 1333.3 545.2 1332.7 549 1328.6 550.3 1299.5 561.8Z" fill="rgba(147, 143, 143, 0.58)"></path><path d="M557.5 442.4L559.6 416 565.1 411.1 580.5 416.5 582 423.8 566.9 445.7C566.8 446 566.8 446 566.7 446.3 566.5 446.9 566.6 447.6 567.4 448.2 568.3 448.5 569 448.4 569.6 447.6L582.7 428.5 584.9 439.7 579.2 448.3C579.2 448.3 579.1 448.6 579.1 448.6 578.9 449.2 579 449.9 579.8 450.5 580.3 451 581.4 450.7 582 449.9L586 444.5 587.5 452.8C587.5 453.5 588.4 454.2 589.4 454.2S590.8 453 590.8 452L589.2 443.9 594.7 447.6C595.5 448.2 596.6 447.9 597.3 447.1 597.5 446.5 597.5 445.5 596.7 444.9L588.2 439.2 586.1 427.6 605.2 440.7C606 441.3 607.2 441.1 607.7 440.6 608 439.7 608 438.6 607.2 438L585.2 423.2 583.8 415.6 595.9 405.3 603.2 407.8 614.9 431.5C615.3 432.4 616.2 432.7 617 432.3S618.1 431 617.7 430.2L607.4 409.3 618.6 413.2 622.9 422.1C623.3 423 624.2 423.3 625.3 423S626.4 421.7 626 420.9L622.8 414.7 631 417.5C631.9 417.8 632.8 417.1 633.1 416.2 633.4 415.3 633 414.5 632.1 414.2L624 411.3 630.1 408.4C631.2 408.1 631.5 407.2 630.8 406.3 630.4 405.4 629.5 405.1 628.7 405.5L619.7 409.9 608.5 406 629.6 396C630.4 395.6 630.9 394.4 630.5 393.6S629.2 392.5 628.4 392.9L604.3 404.5 597.1 402 594.1 386 599.9 381.2 626.3 383.3C627.3 383.3 627.9 382.5 628.2 381.6 628.2 380.6 627.4 380 626.5 379.7L603.4 378.1 612.1 370.6 622.3 371.4C623.3 371.4 623.9 370.6 624.2 369.7 624.1 369 623.4 368.1 622.4 368.1L615.9 367.5 622.2 361.9C622.7 361.4 622.7 360.4 622.3 359.6 621.5 359 620.5 359 620 359.5L613.7 365 614.1 358.1C614 357.4 613.3 356.4 612.6 356.5 611.7 356.2 611.1 356.7 610.8 357.6 610.8 357.6 610.7 357.9 610.7 357.9L609.9 368.1 601.2 375.6 602.8 352.4C602.8 351.4 602.4 350.6 601.4 350.6 600.4 350.6 599.9 351.1 599.7 351.7 599.6 352 599.6 352 599.6 352L597.7 378.8 591.9 383.6 576.5 378.2 575.3 371 590.2 348.7C590.7 348.2 590.4 347.1 589.9 346.6 589.1 346 588 346.3 587.4 347.1L574.3 366.2 572.1 355 577.8 346.4C578.4 345.6 578.4 344.6 577.5 344.3 576.7 343.7 575.6 344 575.1 344.5L571.4 350.3 569.9 342C569.5 341.2 568.7 340.5 567.6 340.5 567.2 340.7 566.7 341.2 566.5 341.8 566.4 342.1 566.4 342.1 566.6 342.5L568.1 350.9 562.3 347.1C561.5 346.5 560.7 346.9 560.2 347.4 560.1 347.7 560.1 347.7 560 348 559.7 348.6 559.8 349.3 560.3 349.8L568.9 355.5 571 366.8 551.9 353.7C551 353.4 550 353.3 549.6 354.2 549.2 354.4 549.2 354.4 549.1 354.7 548.9 355.3 549.3 356.2 549.8 356.7L572.1 371.6 573.3 378.8 561.1 389.4 554.2 387 542.5 363C542.1 362.1 540.9 361.7 540.1 362.1S538.9 363.7 539.3 364.5L549.6 385.4 538.7 381.6 534.1 372.6C533.7 371.7 532.8 371.4 532 371.8 531.2 372.2 530.9 373.1 531.3 373.9L534.2 380 526.1 377.2C525.4 377 524.3 377.3 524 378.2 523.7 379.1 524.3 380.3 524.9 380.5L533.1 383.4 526.9 386.3C526.5 386.5 526.1 386.7 526 387 525.8 387.6 526 388 526.2 388.4 526.6 389.3 527.5 389.6 528.3 389.2L537.6 384.9 548.5 388.7 527.4 398.7C527 398.9 526.9 399.2 526.7 399.8 526.5 400.1 526.4 400.4 526.6 400.8 527 401.6 528.2 402 529.1 401.6L553 390.3 559.9 392.7 563 408.4 557.4 413.6 530.7 411.4C530 411.5 529.2 411.9 529 412.5 528.9 412.8 528.9 412.8 529.2 412.9 528.9 413.8 529.6 414.7 530.6 414.7L553.8 416.3 544.9 424.1 534.7 423.3C534 423.4 533.5 423.9 533.3 424.5 533.3 424.5 533.2 424.8 533.2 424.8 532.9 425.7 533.6 426.6 534.6 426.6L541.6 427 535.2 432.6C534.8 432.8 534.7 433.1 534.6 433.4 534.4 434 534.5 434.7 534.8 434.8 535.5 435.7 536.5 435.7 537.3 435.3L543.7 429.8 543.1 436.3C543 437.3 543.7 438.3 544.7 438.3 545.5 438.2 546.4 437.5 546.3 436.8L547.1 426.6 555.8 419.1 554.2 442.3C554.2 443.3 555 443.9 555.9 444.2 556.6 444.1 557.5 443.4 557.5 442.4ZM579.8 412.5L568 408.4 566.2 407.8 565.8 406 563.6 394 563.3 391.9 564.7 390.7 573.9 382.7 575.4 381.5 577.2 382.2 589 386.3 590.8 386.9 591.2 388.7 593.4 400.7 593.8 402.5 592.3 404 583.1 412 581.6 413.2 579.8 412.5Z" fill="rgba(147, 143, 143, 0.58)"></path><path d="M117.9 313.6L153.6 277.1 172.2 277.3 160.1 289.6C158.5 290.5 158.9 292.5 159.9 294.2 161.1 295 163.4 295.1 164.2 293.9L181.1 277.3 199.4 276.9 190.2 292.7 167.1 298.9C167.1 298.9 166.5 299.2 166.5 299.2 165.4 299.8 165 301.6 165.1 303 166 304.7 167.2 305.4 169.2 305L185.8 300.5 176.6 316.3 127.6 330.2C127.6 330.2 126.7 330 126.7 330 125.6 330.6 125.1 332.4 125.2 333.8 125.7 335.8 127.7 336.8 129.4 335.8L172.2 324 161.5 343.7 142.3 349C142.3 349 142.3 349 141.8 349.3 140.7 350 139.9 351.2 140 352.6 141 354.3 142.5 355.6 144.5 355.2L157.1 351.5 149.2 365.8C147.9 367.3 148.8 368.9 150 369.7 151.6 371 153.5 370.6 154.5 368.5L162.8 354.8 165.6 367.2C166.6 368.9 168.1 370.2 169.8 369.2 171.8 368.8 172.6 367.6 172.1 365.6L166.8 346.5 177.9 327.4 190 370.8C190.1 372.2 192.1 373.2 194.1 372.8 195.2 372.1 196.6 370.6 196.1 368.6L182.2 319.6 191.5 303.8 196.1 320.4C196.5 322.4 198.2 322.9 200.2 322.5 201.6 322.4 202.6 320.3 202.6 318.9L195.9 296.1 204.8 279.7 214.2 295.7 208.3 318.5C207.8 320.2 208.8 321.9 210.5 322.3 211.7 323.1 213.9 321.8 214.4 320.1L218.7 303.4 228.1 319.4 214.8 368.8C214.3 370.6 215.3 372.2 217.1 372.7 218.8 373.1 220.5 372.2 220.9 370.4L232.7 327.2 243.7 345.9 238.7 365.2C238.2 366.9 239.2 368.6 240.9 369.1 242.7 369.5 244.3 368.5 244.8 366.8L248.5 354.2 256.6 368C257.6 369.7 259.4 370.1 261 369.1 262.7 368.2 263.1 366.4 262.2 364.8L254.1 351 266.3 354.2C268.1 354.6 269.7 353.6 270.2 351.9S269.7 348.5 267.9 348L249.5 343.2 238.2 323.9 281.1 335.1C282.8 335.5 284.5 334.6 285 332.8 285.4 331.1 284.4 329.4 282.7 329L233.6 316.2 224.2 300.2 240.9 304.5C242.6 305 244.3 304 244.8 302.2 245.2 300.5 244.2 298.8 242.5 298.4L219.7 292.5 210.6 277 228.4 277 245.6 293.6C246.8 294.4 249.1 294.5 249.9 293.3 251.2 291.8 251.1 290.3 250.2 288.7L237.9 276.6 255.6 276.6 292.2 312.3C293.7 313.6 295.1 313.5 296.8 312.5 298.1 311 297.7 309 297.1 307.9L265.1 276.2 287.5 276.4 301.3 289.8C302.3 291.5 304.2 291.1 305.9 290.1 306.7 288.9 306.8 286.6 305.3 285.3L296.4 276.4 312.4 275.9C314.2 276.4 315.5 274.8 315.6 272.5 315.5 271.1 314 269.8 312.6 269.9L296.2 269.8 305.6 260.6C307 259.1 306.5 257.1 305.3 256.3 304.4 254.6 302.9 254.7 301.8 255.4 301.3 255.7 301.3 255.7 300.7 256L287.3 269.8 264.9 269.6 296.1 238C297.7 237 297.3 235 296.3 233.4 295.1 232.6 293.7 232.7 292.6 233.3 292.1 233.7 292.1 233.7 292.1 233.7L255.5 270 237.7 270 249.8 257.7C251.1 256.2 251 254.8 250.1 253.1 248.9 252.3 247.1 251.9 246 252.5 245.5 252.9 245.5 252.9 244.9 253.2L228.3 270.4 210.5 270.4 219.2 254.9 242 248.2C244 247.8 245 245.7 244.9 244.3 243.9 242.6 242.4 241.3 240.7 242.3L224.1 246.8 232.5 230.8 282.3 217.1C283.8 217 284.8 214.9 284.7 213.5 283.7 211.8 282.2 210.5 280.2 210.9L237.4 222.7 248.5 203.6 267 198.6C269 198.2 270 196.1 269.1 194.5 269 193 267.4 191.7 265.5 192.1L252.8 195.9 260.7 181.5C261.5 180.3 261.1 178.4 259.6 177 258.7 176.8 257.3 176.9 256.2 177.6 256.2 177.6 255.6 177.9 255.1 178.2L247.1 192.5 243.4 179.8C243.3 178.4 241.2 177.4 239.8 177.5 239.3 177.8 239.3 177.8 239.3 177.8 237.6 178.8 237.1 180.6 237.8 181.7L242.8 200.3 232 219.9 220 176.5C219 174.9 217.8 174.1 215.8 174.5 215.8 174.5 215.3 174.9 215.3 174.9 214.1 175.5 213.4 176.7 213.8 178.7L227.1 228 218.4 243.5 213.9 226.9C212.9 225.2 211.4 223.9 209.7 224.9 209.4 224.3 208.8 224.6 208.8 224.6 207.7 225.3 207.3 227 207.4 228.5L214.1 251.2 204.8 267.1 195.7 251.6 201.7 228.8C202.1 227.1 200.8 224.9 199.1 224.4 197.6 224.5 196 225.5 195.2 226.7L191.2 243.9 181.8 227.9 194.6 178.8C195 177.1 194.1 175.4 192.3 175 190.6 174.5 188.9 175.5 188.4 177.2L177.3 220.1 165.9 200.8 170.7 182.4C171.2 180.7 170.2 179 168.5 178.6S165 179.1 164.6 180.8L161.4 193.1 153.3 179.3C152.3 177.6 150.6 177.2 148.9 178.2 147.3 179.1 146.8 180.9 147.8 182.5L155.9 196.3 143.1 193.5C142.2 193.2 141.3 193 140.8 193.3 140.2 193.7 139.4 194.9 139.2 195.7 138.7 197.5 139.7 199.1 141.5 199.6L160.4 204.1 171.8 223.4 128.3 212.5C127.4 212.3 126.5 212.1 126 212.4 125.4 212.7 124.6 213.9 124.4 214.8 124 216.6 124.9 218.2 126.7 218.7L176.3 231.1 185.7 247.1 168.7 242.2C167.8 242 166.7 242.7 166.2 243 165.6 243.3 165.1 243.6 164.9 244.5 164.4 246.3 165.7 248.5 167.1 248.4L190.2 254.8 199.3 270.3 181 270.7 164.3 253.7C163.1 252.9 161.4 252.5 160.3 253.1 159.7 253.5 159.7 253.5 160 254 158.4 255 158.3 257.3 159.8 258.6L172.1 270.7 153.7 271.1 117.4 234.5C116.2 233.7 114.8 233.8 113.7 234.5 113.1 234.8 113.1 234.8 113.1 234.8 111.8 236.3 111.4 238.1 112.9 239.4L144.8 271.1 122.5 270.9 108.6 257.5C107.1 256.1 105.7 256.2 104.6 256.9 104.6 256.9 104 257.2 104 257.2 102.7 258.7 103.1 260.7 103.8 261.8L113.6 270.9 97.2 270.9C96.7 271.2 96.1 271.5 95.5 271.8 95 272.1 94.2 273.3 94 274.2 94.4 276.2 95.4 277.9 97.4 277.4L113.7 277.5 104.3 286.7C103 288.3 103.4 290.2 104 291.3 105.6 292.7 107.5 292.2 109.2 291.3L122.6 277.5 144.7 277.1 113.5 308.8C112.2 310.3 112.1 312.6 113.3 313.4 114.8 314.7 116.5 315.2 117.9 313.6Z" fill="rgba(147, 143, 143, 0.58)"></path><path d="M1231 192.9L1210.1 218.6 1201.1 219.8 1189 203.3 1192.7 194.7 1223.7 182.9C1224 182.7 1224 182.7 1224.3 182.5 1225 182 1225.4 181.2 1225 180 1224.3 179 1223.5 178.6 1222.3 179L1195.2 189.4 1201 176.2 1212.9 171.5C1212.9 171.5 1213.2 171.3 1213.2 171.3 1213.9 170.8 1214.3 170 1213.9 168.8 1213.7 167.9 1212.4 167.4 1211.2 167.8L1203.3 170.6 1207.7 161C1208.1 160.2 1207.7 159 1206.6 158.2S1204.3 158.4 1203.6 159.5L1199.6 168.9 1196.5 161.2C1196.1 160 1194.7 159.5 1193.5 159.9 1192.9 160.4 1192.1 161.4 1192.5 162.6L1197.2 174.5 1191.2 187.9 1180.8 160.8C1180.4 159.6 1179 159.1 1178.2 159.2 1177.2 159.9 1176.5 161 1176.8 162.2L1188.9 193 1185 201.8 1165.2 203.9 1159.5 196.1 1164.3 163.4C1164.5 162.3 1163.8 161.3 1162.7 161.1S1160.6 161.7 1160.4 162.8L1156.2 191.6 1147.5 179.7 1149.4 167.4C1149.6 166.2 1148.9 165.3 1147.5 164.8S1145.4 165.3 1145.3 166.4L1144.2 175.1 1137.8 166.4C1137.1 165.4 1135.7 165.5 1134.7 166.2 1133.7 166.9 1133.6 168 1134.3 169L1140.6 177.7 1132.3 176.4C1130.9 175.9 1129.9 176.6 1130 178.1 1129.8 179.2 1130.5 180.2 1131.6 180.3L1143.9 182.3 1152.7 194.2 1123.9 189.4C1122.8 189.3 1121.5 190.2 1121.3 191.3S1121.9 193.4 1123 193.6L1156 198.7 1161.6 206.5 1153.3 224.9 1144 225.8 1118.4 204.9C1117.3 204.2 1116.1 204.5 1115.2 205.3 1114.4 206.3 1114.8 207.5 1115.5 208.5L1138.2 226.6 1123.9 228.1 1114 220C1113 219.2 1111.8 219.6 1110.8 220.3 1110.4 221.1 1110.5 222.6 1111.5 223.3L1117.8 228.6 1107.3 229.8C1106.5 229.9 1105.7 231 1105.6 232.1 1105.9 233.3 1107 234 1107.9 233.9L1118.3 232.7 1113 239.5C1112.6 240.3 1112.6 241.8 1113.4 242.2 1114.1 243.2 1115 243 1116 242.3 1116 242.3 1116.3 242.1 1116.3 242.1L1124.4 232.2 1138.7 230.7 1120.6 253.3C1119.8 254.4 1119.7 255.5 1120.7 256.2 1121.7 256.9 1122.6 256.8 1123.3 256.3 1123.6 256.1 1123.6 256.1 1123.6 256.1L1144.5 229.9 1153.8 229 1165.9 245.5 1162 253.8 1130.9 266.1C1130 266.2 1129.5 267.6 1129.7 268.5 1130 269.7 1131.4 270.2 1132.6 269.8L1159.7 259.4 1153.9 272.5 1142 277.3C1140.8 277.7 1140.1 278.7 1140.8 279.7 1141.2 280.9 1142.5 281.4 1143.4 281.2L1151.4 277.9 1147 287.5C1146.8 288.6 1147.2 289.8 1148.3 290.6 1148.8 290.6 1149.7 290.5 1150.3 290 1150.7 289.8 1150.7 289.8 1150.8 289.2L1155.1 279.6 1158.5 287.6C1158.8 288.8 1160 288.9 1160.8 288.8 1161.2 288.6 1161.2 288.6 1161.5 288.3 1162.1 287.8 1162.5 287.1 1162.4 286.2L1157.7 274.3 1163.4 261.1 1173.8 288.2C1174.5 289.2 1175.6 289.9 1176.5 289.2 1177.1 289.3 1177.1 289.3 1177.4 289.1 1178 288.6 1178.2 287.5 1178.1 286.6L1165.7 255.5 1169.6 247.2 1189.7 244.9 1195.1 252.3 1190 285.3C1189.8 286.4 1190.8 287.7 1191.9 287.9S1194.3 287.1 1194.5 286L1198.7 257.2 1207.2 268.8 1205.5 281.4C1205.3 282.6 1206 283.5 1207.2 283.7 1208.3 283.9 1209.2 283.2 1209.4 282L1210.7 273.7 1217.1 282.4C1217.6 283 1218.9 283.5 1219.9 282.8 1220.9 282.1 1221.1 280.4 1220.6 279.8L1214.3 271.1 1222.7 272.4C1223.2 272.5 1223.8 272.5 1224.1 272.3 1224.7 271.8 1224.8 271.3 1224.9 270.7 1225.1 269.6 1224.4 268.6 1223.3 268.5L1210.7 266.2 1202.2 254.6 1231 259.4C1231.5 259.4 1231.9 259.2 1232.5 258.7 1232.8 258.5 1233.2 258.3 1233.2 257.7 1233.4 256.6 1232.5 255.3 1231.4 255.1L1198.7 249.7 1193.3 242.3 1201.3 224.1 1210.6 222.7 1236.5 243.9C1237.3 244.3 1238.4 244.5 1239.1 244 1239.4 243.8 1239.4 243.8 1239.2 243.5 1240.2 242.7 1240.1 241.3 1239.1 240.6L1216.4 222.4 1231 220.7 1240.9 228.8C1241.7 229.2 1242.6 229.1 1243.2 228.6 1243.2 228.6 1243.5 228.4 1243.5 228.4 1244.5 227.7 1244.4 226.2 1243.4 225.5L1236.5 220.1 1247 218.9C1247.6 219 1247.9 218.8 1248.2 218.5 1248.9 218.1 1249.3 217.3 1249 216.9 1249 215.5 1247.9 214.8 1246.8 214.6L1236.3 215.8 1241.6 209.5C1242.3 208.5 1242.3 207 1241.2 206.3 1240.5 205.9 1239 205.9 1238.6 206.7L1230.5 216.6 1216.2 218.1 1234.3 195.5C1235.1 194.4 1234.7 193.2 1234 192.3 1233.2 191.9 1231.7 191.9 1231 192.9ZM1186.9 207.8L1196.1 220.4 1197.5 222.4 1196.6 224.5 1190.4 238.4 1189.2 240.8 1186.9 241 1171.7 242.7 1169.4 242.9 1168 241 1158.8 228.4 1157.4 226.4 1158.3 224.3 1164.5 210.4 1165.4 208.2 1168 207.8 1183.2 206.1 1185.5 205.9 1186.9 207.8Z" fill="rgba(147, 143, 143, 0.58)"></path><path d="M389 272.2L401.7 242.8 412.6 238.8 408.3 248.6C407.5 249.6 408.2 250.6 409.2 251.4 410 251.6 411.4 251.1 411.6 250.3L417.8 236.7 428.4 232.4 426.5 243.7 414.4 252.5C414.4 252.5 414.2 252.8 414.2 252.8 413.7 253.4 413.8 254.6 414.2 255.4 415.1 256.1 416 256.3 417.1 255.6L425.7 249.2 423.9 260.5 398.4 279.6C398.4 279.6 397.9 279.7 397.9 279.7 397.4 280.3 397.5 281.5 397.9 282.3 398.6 283.3 400 283.5 400.7 282.5L423.1 266 421.2 279.9 411.2 287.3C411.2 287.3 411.2 287.3 411 287.6 410.5 288.2 410.3 289.1 410.7 289.9 411.6 290.7 412.8 291.1 413.9 290.4L420.4 285.4 419 295.5C418.6 296.7 419.5 297.5 420.4 297.7 421.6 298.1 422.6 297.4 422.8 296L424.5 286.1 428.9 292.7C429.9 293.4 431.1 293.9 431.8 292.9 432.9 292.3 433.1 291.4 432.4 290.3L425 280.3 427.1 266.7 443.9 289.3C444.3 290.1 445.7 290.2 446.8 289.5 447.3 288.9 447.7 287.7 447 286.7L427.9 261.2 429.8 249.9 436.2 258.6C436.9 259.6 438 259.5 439 258.8 439.9 258.4 440 257 439.6 256.2L430.6 244.4 432.1 232.8 441.2 240.1 442.8 254.7C443 255.8 443.9 256.6 445 256.4 445.9 256.6 446.9 255.4 446.8 254.2L445.6 243.6 454.6 250.8 458 282.6C458.1 283.7 459 284.5 460.2 284.3 461.3 284.2 462 283.3 461.9 282.1L459 254.3 469.7 262.8 471.1 275.1C471.2 276.2 472.1 277 473.3 276.9 474.4 276.7 475.1 275.8 475 274.7L474.4 266.5 482.2 272.7C483.1 273.5 484.2 273.3 485 272.4 485.7 271.5 485.6 270.3 484.7 269.6L476.9 263.4 484.7 262.5C485.8 262.3 486.6 261.4 486.5 260.3S485.4 258.4 484.3 258.5L472.5 259.9 461.5 251.1 489.1 248C490.2 247.9 490.9 247 490.8 245.8 490.7 244.7 489.7 244 488.6 244.1L457.1 247.7 448.1 240.4 458.7 239.2C459.9 239.1 460.6 238.2 460.5 237 460.4 235.9 459.4 235.2 458.3 235.3L443.7 236.9 434.9 230 445.3 225.9 459 231.8C459.9 232 461.3 231.5 461.5 230.7 461.9 229.5 461.5 228.7 460.6 227.9L450.7 223.6 461.1 219.6 490.4 232.2C491.6 232.7 492.4 232.3 493.2 231.3 493.6 230.2 492.9 229.1 492.3 228.6L466.5 217.3 479.6 212.4 490.7 217.1C491.6 217.9 492.7 217.2 493.4 216.2 493.6 215.3 493.2 214 492 213.5L484.8 210.4 494 206.5C495.2 206.4 495.6 205.2 495.2 203.8 494.8 203 493.6 202.5 492.8 202.9L483.2 206.6 486.6 199.1C487.1 197.9 486.4 196.8 485.5 196.6 484.6 195.9 483.8 196.3 483.3 196.9 483 197.2 483 197.2 482.8 197.5L478 208.6 464.9 213.5 476 188C476.8 187.1 476.1 186 475.1 185.3 474.3 185.1 473.4 185.5 472.9 186.1 472.7 186.4 472.7 186.4 472.7 186.4L459.5 215.8 449.1 219.8 453.4 209.9C453.9 208.7 453.5 207.9 452.6 207.2 451.7 207 450.6 207.1 450.1 207.8 449.8 208.1 449.8 208.1 449.6 208.4L443.7 222.1 433.4 226.2 435 215.2 446.7 206.1C447.8 205.5 447.9 204 447.6 203.2 446.6 202.5 445.4 202 444.7 203L436 209.3 437.3 198.1 463.3 178.9C464.1 178.6 464.2 177.1 463.9 176.3 462.9 175.6 461.7 175.1 460.7 175.8L438.3 192.3 440.5 178.7 450.2 171.6C451.3 170.9 451.4 169.5 450.5 168.7 450.1 167.9 448.9 167.5 447.9 168.2L441.3 173.2 442.7 163C442.9 162.2 442.2 161.1 441 160.7 440.5 160.7 439.7 161.1 439.2 161.7 439.2 161.7 438.9 162.1 438.7 162.4L437.2 172.5 432.2 165.9C431.9 165.1 430.4 165 429.6 165.4 429.4 165.7 429.4 165.7 429.4 165.7 428.6 166.6 428.7 167.8 429.4 168.3L436.4 178 434.6 191.9 417.8 169.3C416.9 168.5 416 168.3 414.9 169 414.9 169 414.7 169.3 414.7 169.3 414.2 170 414 170.9 414.7 171.9L433.5 197.7 431.9 208.7 425.6 200C424.6 199.3 423.4 198.8 422.7 199.8 422.4 199.5 422.1 199.8 422.1 199.8 421.6 200.4 421.7 201.6 422.1 202.4L431.1 214.2 429.3 225.5 420.5 218.5 418.9 203.9C418.8 202.8 417.5 201.8 416.4 201.9 415.6 202.3 414.8 203.2 414.6 204.1L416.2 215 407.1 207.8 403.5 176.3C403.4 175.2 402.5 174.4 401.3 174.6 400.2 174.7 399.5 175.6 399.6 176.8L402.7 204.3 391.8 195.6 390.4 183.8C390.3 182.6 389.3 181.9 388.2 182S386.4 183.1 386.5 184.2L387.4 192.1 379.5 185.9C378.6 185.1 377.5 185.2 376.7 186.2 376 187.1 376.1 188.2 377.1 189L384.9 195.2 376.8 196.4C376.2 196.5 375.6 196.5 375.4 196.9 375.1 197.2 375 198 375 198.6 375.1 199.7 376.1 200.5 377.2 200.4L389.3 198.7 400.2 207.4 372.4 210.9C371.9 210.9 371.3 211 371 211.3 370.8 211.6 370.6 212.5 370.7 213 370.8 214.2 371.7 214.9 372.9 214.8L404.6 210.9 413.7 218.1 402.7 219.1C402.1 219.2 401.6 219.8 401.4 220.1 401.1 220.4 400.9 220.7 400.9 221.3 401.1 222.4 402.3 223.4 403.1 223L418 221.6 426.8 228.6 416.2 232.9 402.7 226.8C401.8 226.6 400.7 226.7 400.2 227.4 399.9 227.7 399.9 227.7 400.3 227.9 399.5 228.9 399.9 230.2 401.1 230.7L411 235 400.4 239.3 371 226.1C370.1 225.9 369.3 226.3 368.8 226.9 368.6 227.2 368.6 227.2 368.6 227.2 368.1 228.4 368.3 229.5 369.5 230L395.2 241.3 382.1 246.2 371 241.5C369.9 241 369 241.4 368.5 242 368.5 242 368.3 242.3 368.3 242.3 367.9 243.5 368.6 244.6 369.2 245.1L376.9 248.2 367.4 251.8C367.1 252.2 366.9 252.5 366.6 252.8 366.4 253.1 366.2 254 366.3 254.5 367 255.6 367.9 256.3 368.9 255.7L378.5 252 375.1 259.5C374.6 260.7 375.3 261.8 376 262.3 377.1 262.7 378.2 262 379 261.1L383.7 250 396.5 244.9 385.4 270.3C385 271.5 385.4 272.9 386.3 273 387.5 273.5 388.6 273.4 389 272.2Z" fill="rgba(147, 143, 143, 0.58)"></path><path d="M1326.8 56.4L1340.3 78 1338 87.1 1333.5 79.8C1333.2 78.8 1332.2 78.8 1331.2 79.1 1330.7 79.6 1330.4 80.7 1330.9 81.2L1336.9 91.4 1334.9 100.4 1328.3 94 1328.1 82C1328.1 82 1328 81.7 1328 81.7 1327.8 81.1 1327 80.7 1326.3 80.5 1325.4 80.8 1324.9 81.3 1324.9 82.3L1325.1 90.9 1318.5 84.6 1317.6 59.1C1317.6 59.1 1317.8 58.7 1317.8 58.7 1317.6 58.1 1316.8 57.7 1316.1 57.5 1315.1 57.5 1314.4 58.4 1314.7 59.3L1315.3 81.5 1307 74 1306.7 64C1306.7 64 1306.7 64 1306.6 63.7 1306.4 63.1 1305.9 62.6 1305.2 62.5 1304.3 62.7 1303.5 63.3 1303.5 64.3L1303.8 70.9 1297.8 65.4C1297.2 64.5 1296.3 64.8 1295.7 65.3 1294.9 65.9 1294.9 66.9 1295.8 67.6L1301.5 73.3 1295.1 73.2C1294.2 73.5 1293.3 74 1293.6 75 1293.6 76 1294.1 76.5 1295.1 76.5L1305 76.2 1313 83.9 1290.5 84.6C1289.8 84.5 1289 85.3 1289 86.4 1289.2 87 1289.8 87.8 1290.8 87.8L1316.2 86.9 1322.8 93.3 1314.2 93.5C1313.2 93.5 1312.7 94.3 1312.7 95.3 1312.6 96 1313.5 96.7 1314.2 96.9L1326 96.3 1332.9 102.6 1324 105.3 1313.7 99.7C1312.9 99.3 1312 99.5 1311.5 100.3 1311 100.8 1311.4 102 1312.2 102.5L1319.8 106.6 1310.9 109.2 1288.5 96.9C1287.7 96.4 1286.8 96.7 1286.3 97.5 1285.9 98.3 1286.2 99.2 1287 99.7L1306.6 110.5 1296.1 113.6 1287.4 108.9C1286.6 108.5 1285.7 108.7 1285.2 109.5 1284.8 110.3 1285.1 111.2 1285.9 111.7L1291.5 115 1283.9 117.3C1283 117.5 1282.5 118.3 1282.8 119.3 1283.1 120.2 1283.9 120.6 1284.8 120.3L1292.5 118.1 1289.4 123.6C1289 124.4 1289.3 125.3 1290.1 125.8S1291.8 125.9 1292.2 125.1L1296.8 116.8 1307.5 113.6 1296.9 133.1C1296.5 133.9 1296.8 134.8 1297.6 135.2 1298.4 135.7 1299.3 135.4 1299.7 134.6L1311.8 112.3 1320.7 109.6 1316.6 117.2C1316.2 118 1316.4 118.9 1317.2 119.3 1318 119.8 1318.9 119.5 1319.4 118.7L1325 108.3 1333.5 105.8 1331.4 114.4 1321.3 120.8C1320.8 121.3 1320.5 122.4 1321 122.9 1321.5 123.7 1322.2 123.8 1323.2 123.6L1330.5 119 1328.4 127.7 1306.7 141.2C1305.9 141.8 1305.8 142.5 1306 143.4 1306.6 144.2 1307.6 144.2 1308.2 144.1L1327.4 132.3 1324.7 143.2 1316.5 148.3C1315.6 148.5 1315.6 149.6 1315.8 150.5 1316.3 151 1317.4 151.3 1318.3 150.8L1323.6 147.5 1322 155.3C1321.5 156.1 1322.1 157 1323.2 157.3 1323.9 157.4 1324.7 156.8 1324.9 156.1L1326.8 148.2 1330.2 153.9C1330.8 154.7 1331.8 154.7 1332.3 154.2 1333.2 154 1333.4 153.3 1333.2 152.6 1333.1 152.3 1333.1 152.3 1333 152L1327.9 143.9 1330.7 133 1342.3 151.9C1342.6 152.8 1343.6 152.9 1344.5 152.6 1345 152.1 1345.2 151.4 1345 150.8 1344.9 150.5 1344.9 150.5 1344.9 150.5L1331.6 128.4 1333.7 119.8 1338.2 127.1C1338.8 127.9 1339.5 128 1340.4 127.8 1341 127.3 1341.4 126.5 1341.2 125.9 1341.1 125.6 1341.1 125.6 1341 125.3L1334.7 115.1 1336.8 106.5 1343.3 112.6 1343.8 124.4C1343.8 125.4 1344.6 126.2 1345.4 126.3 1346.3 126 1347.1 125.4 1346.8 124.5L1346.6 115.9 1353.4 121.9 1354.1 147.7C1354 148.4 1354.9 149.2 1355.6 149.3 1356.5 149 1357.3 148.4 1357.3 147.4L1356.7 125.2 1364.7 132.9 1364.9 142.5C1364.9 143.5 1365.7 144.3 1366.7 144 1367.4 144.1 1368.2 143.5 1368.2 142.5L1367.9 135.9 1373.9 141.5C1374.4 142 1375.4 142 1376.3 141.4 1376.5 141 1376.6 140.3 1376.4 139.7 1376.4 139.7 1376.3 139.4 1376.2 139.1L1370.2 133.6 1376.8 133.3C1377.5 133.4 1378.3 132.5 1378.4 131.8 1378.3 131.5 1378.3 131.5 1378.3 131.5 1378 130.6 1377.2 130.1 1376.6 130.3L1367 130.5 1358.7 123 1381.2 122.3C1382.1 122 1382.7 121.5 1382.7 120.5 1382.7 120.5 1382.6 120.2 1382.6 120.2 1382.4 119.6 1381.9 119 1380.9 119L1355.4 119.6 1348.9 113.6 1357.5 113.3C1358.4 113 1359.3 112.5 1359 111.5 1359.3 111.4 1359.2 111.1 1359.2 111.1 1359 110.5 1358.2 110.1 1357.5 110L1345.6 110.5 1339.1 104.1 1347.6 101.6 1358 107.2C1358.8 107.6 1360 107.2 1360.5 106.4 1360.6 105.7 1360.3 104.8 1359.8 104.3L1351.9 100.3 1360.8 97.6 1383.1 109.7C1383.9 110.1 1384.8 109.8 1385.3 109 1385.7 108.2 1385.4 107.3 1384.6 106.9L1365.1 96.3 1375.9 93.1 1384.2 97.7C1385 98.1 1385.9 97.8 1386.4 97S1386.5 95.3 1385.7 94.9L1380.1 91.9 1387.8 89.6C1388.7 89.3 1389.2 88.5 1388.9 87.6 1388.6 86.7 1387.8 86.2 1386.9 86.5L1379.2 88.8 1382.2 82.9C1382.4 82.5 1382.6 82.1 1382.5 81.8 1382.4 81.5 1381.9 81 1381.5 80.8 1380.7 80.3 1379.8 80.6 1379.4 81.4L1374.9 90.1 1364.2 93.3 1374.7 73.5C1374.9 73.1 1375.1 72.7 1375 72.4 1374.9 72.1 1374.4 71.5 1374 71.3 1373.2 70.9 1372.3 71.2 1371.9 72L1359.9 94.6 1351 97.2 1355.4 89.6C1355.6 89.2 1355.4 88.5 1355.4 88.2 1355.3 87.9 1355.2 87.6 1354.8 87.4 1354 87 1352.8 87.4 1352.6 88.1L1346.7 98.5 1338.1 101.1 1340.2 92.1 1350.4 86.1C1350.9 85.6 1351.3 84.8 1351.1 84.2 1351 83.9 1351 83.9 1350.7 83.9 1350.5 83 1349.4 82.7 1348.5 83.3L1341.2 87.8 1343.2 78.8 1365.3 65.6C1365.8 65.1 1365.9 64.4 1365.7 63.8 1365.7 63.5 1365.7 63.5 1365.7 63.5 1365.1 62.6 1364.3 62.2 1363.4 62.8L1344.2 74.5 1347 63.7 1355.2 58.6C1356 58 1356.1 57.3 1355.9 56.7 1355.9 56.7 1355.9 56.4 1355.9 56.4 1355.3 55.5 1354.3 55.5 1353.6 55.7L1348.1 59.4 1350 51.4C1349.9 51.1 1349.9 50.8 1349.8 50.5 1349.7 50.2 1349.2 49.7 1348.8 49.5 1347.8 49.4 1346.9 49.7 1346.8 50.7L1344.8 58.7 1341.5 53C1340.9 52.1 1339.9 52.1 1339.3 52.3 1338.5 52.9 1338.4 53.9 1338.7 54.8L1343.8 63 1341.3 73.7 1329.7 54.8C1329.1 54 1328 53.7 1327.5 54.2 1326.6 54.7 1326.2 55.5 1326.8 56.4Z" fill="rgba(147, 143, 143, 0.58)"></path><path d="M616.6 170.3L646.8 160 657.1 165.4 646.9 168.8C645.7 168.9 645.4 170.1 645.5 171.3 645.9 172.1 647.2 172.8 648 172.4L662.1 167.9 672.4 172.9 662.8 179.1 648.2 176C648.2 176 647.8 176 647.8 176 647 176.1 646.2 176.9 645.9 177.7 646 178.9 646.4 179.7 647.6 180L658.2 182.2 648.5 188.4 617.3 182.3C617.3 182.3 616.9 181.9 616.9 181.9 616.1 182 615.3 182.8 615 183.6 614.7 184.9 615.5 186 616.7 185.9L643.9 191.5 632.4 199.4 620.2 196.9C620.2 196.9 620.2 196.9 619.8 197 619 197 618.2 197.5 617.9 198.3 618 199.5 618.4 200.7 619.7 201L627.8 202.5 619.3 208.2C618.1 208.7 618.2 209.9 618.7 210.7 619.1 211.8 620.3 212.2 621.5 211.3L630 206 628.1 213.7C628.1 214.9 628.6 216.1 629.8 216 631 216.3 631.8 215.9 632.1 214.6L634.6 202.5 646.1 194.9 640.6 222.5C640.3 223.4 641.1 224.5 642.4 224.8 643.2 224.8 644.3 224.3 644.7 223.1L650.8 191.9 660.4 185.7 658.2 196.2C657.9 197.4 658.8 198.2 660 198.5 660.8 198.9 662 198 662.3 197.2L665 182.6 674.6 176 675.3 187.5 665.6 198.6C664.8 199.4 664.9 200.6 665.8 201.4 666.2 202.1 667.8 202 668.6 201.2L675.7 193.1 676.4 204.7 655 228.5C654.3 229.3 654.3 230.5 655.2 231.3 656 232 657.2 231.9 658 231.1L676.7 210.3 677.6 223.9 669.3 233.2C668.6 234 668.7 235.2 669.5 236 670.4 236.7 671.5 236.7 672.3 235.8L677.9 229.9 678.6 239.8C678.6 241 679.5 241.8 680.7 241.7 681.9 241.6 682.6 240.8 682.5 239.6L681.9 229.6 687.9 234.9C688.7 235.6 689.9 235.5 690.7 234.7S691.3 232.6 690.5 231.9L681.6 224 680.7 210.1 701.5 228.4C702.3 229.2 703.5 229.1 704.3 228.2 705 227.4 705 226.2 704.1 225.4L680.4 204.5 679.7 192.9 687.7 200C688.6 200.8 689.8 200.7 690.5 199.8 691.3 199 691.2 197.8 690.4 197L679.3 187.3 678.6 176.1 688.6 181.1 693.4 195.2C693.9 196 695.1 196.7 695.9 196.3 697.1 195.8 697.4 195 697.4 193.8L693.9 183.6 703.9 188.6 714.1 218.8C714.6 220 715.4 220.3 716.6 220.3 717.8 219.8 718.1 218.6 718.1 217.8L709.2 191.1 721.6 197.5 725.5 208.9C725.6 210.1 726.8 210.4 728 210.3 728.8 209.9 729.5 208.7 729.1 207.5L726.6 200 735.7 204.3C736.5 205 737.7 204.5 738.4 203.3 738.8 202.5 738.3 201.3 737.5 200.9L728.4 196.3 736.2 193.8C737.4 193.3 737.7 192.1 737.3 191.3 737.2 190.1 736.4 189.8 735.6 189.8 735.2 189.9 735.2 189.9 734.8 189.9L723.4 193.8 711 187.3 737.3 178.5C738.5 178.4 738.8 177.2 738.8 176 738.3 175.2 737.5 174.9 736.7 174.9 736.3 175 736.3 175 736.3 175L705.6 184.9 695.7 179.9 705.9 176.4C707.1 176 707.4 175.1 707.4 173.9 706.9 173.2 706.1 172.4 705.3 172.5 704.9 172.5 704.9 172.5 704.5 172.5L690.3 177.4 680.4 172.4 689.7 166.2 704.3 168.9C705.5 169.3 706.6 168.4 707 167.6 706.9 166.4 706.4 165.2 705.2 165.3L694.7 163.1 703.9 156.5 735.5 163C736.4 163.3 737.5 162.5 737.9 161.7 737.8 160.5 737.3 159.3 736.1 159L708.9 153.4 720.5 145.9 732.2 148.4C733.5 148.7 734.6 147.8 734.5 146.6 734.9 145.8 734.4 144.6 733.2 144.3L725.1 142.8 733.6 137.1C734.3 136.6 734.6 135.4 734.2 134.2 733.8 133.9 732.9 133.5 732.1 133.6 732.1 133.6 731.7 133.6 731.3 133.6L722.9 139.3 724.4 131.2C724.7 130.4 723.9 129.3 723 128.9 722.6 128.9 722.6 128.9 722.6 128.9 721.4 129 720.7 129.8 720.7 130.6L718.2 142.4 706.7 150.3 712.2 122.8C712.2 121.6 711.7 120.8 710.5 120.5 710.5 120.5 710.1 120.5 710.1 120.5 709.3 120.5 708.5 121 708.2 122.2L701.7 153.5 692.5 159.6 694.6 149.1C694.5 147.9 694.1 146.7 692.9 146.8 692.8 146.4 692.4 146.4 692.4 146.4 691.6 146.5 690.9 147.3 690.5 148.1L687.8 162.7 678.2 168.9 677.5 157.7 687.3 146.7C688 145.9 687.9 144.3 687.1 143.5 686.2 143.2 685 143.3 684.3 143.7L677.2 152.2 676.5 140.6 697.4 116.8C698.2 116 698.1 114.8 697.3 114.1 696.4 113.3 695.2 113.4 694.5 114.2L676.1 135 675.3 121 683.1 112.1C683.9 111.3 683.8 110.1 683 109.3S680.9 108.6 680.2 109.5L674.9 115.4 674.3 105.4C674.2 104.3 673.4 103.5 672.2 103.6 671 103.6 670.2 104.5 670.3 105.7L670.9 115.7 664.6 110.5C664.2 110.1 663.7 109.7 663.3 109.7 662.9 109.8 662.2 110.2 661.8 110.6 661 111.5 661.1 112.7 662 113.4L671.3 121.3 672.1 135.2 651 116.9C650.5 116.5 650.1 116.2 649.7 116.2 649.3 116.2 648.5 116.7 648.2 117.1 647.4 117.9 647.5 119.1 648.3 119.9L672.5 140.8 673.2 152.4 665.1 144.9C664.7 144.5 663.9 144.6 663.5 144.6 663.1 144.6 662.7 144.6 662.3 145.1 661.6 145.9 661.7 147.5 662.5 147.9L673.5 158 674.2 169.2 663.9 164.2 659.4 150C659 149.3 658.1 148.5 657.3 148.6 656.9 148.6 656.9 148.6 656.9 149 655.7 149.1 655 150.3 655.5 151.5L658.9 161.7 648.6 156.7 638.7 126.1C638.2 125.3 637.4 124.9 636.6 125 636.2 125 636.2 125 636.2 125 635.1 125.5 634.3 126.3 634.8 127.5L643.6 154.2 631.2 147.8 627.3 136.4C626.8 135.2 626 134.9 625.2 134.9 625.2 134.9 624.8 134.9 624.8 134.9 623.6 135.4 623.3 136.6 623.4 137.4L626.3 145.3 617.1 140.6C616.7 140.6 616.4 140.7 616 140.7 615.6 140.7 614.8 141.2 614.4 141.6 614.1 142.8 614.2 144 615.4 144.3L624.5 149 616.6 151.5C615.4 151.9 615.1 153.2 615.2 154 615.6 155.1 616.9 155.5 618.1 155.4L629.4 151.5 641.8 157.5 615.5 166.4C614.4 166.8 613.6 168.1 614.1 168.9 614.5 170 615.4 170.8 616.6 170.3Z" fill="rgba(147, 143, 143, 0.58)"></path><path d="M181.5 517.3L176.1 507.5 182.8 507.4C183.5 507.4 184.3 506.7 184.5 505.7 184.3 504.9 183.6 504.1 182.7 504.3L174.3 504.3 169.7 496.8 187.3 497C188.2 496.8 188.9 496.1 189 495.4 188.9 494.2 188.2 493.5 187.4 493.7L167.9 493.6 161.3 482 176.5 483.8 167.3 471.5 180.7 471.4 190.6 488.2C190.4 488.5 190.7 488.6 191 488.8 191.5 489.1 192.2 489.1 192.8 488.7 193.4 488.4 193.6 487.4 193.4 486.5L184.4 471.3 193.1 471.6 197.4 478.8C197.5 479.3 197.8 479.4 198.1 479.6 198.4 479.8 199.1 479.8 199.7 479.4 200.3 479 200.5 478 200.1 477.4L196.9 471.5 208.1 471.3C209 471.5 209.5 470.7 209.7 469.7 209.8 469 209.1 468.2 207.9 468.3L196.9 468.2 200.3 462.4C200.8 461.6 200.2 460.5 199.7 460.2 198.9 459.7 198 460 197.5 460.8L193.2 468.3 184.5 468 193.1 453.1C193.6 452.2 193.3 451.4 192.5 450.9 191.9 450.6 190.8 450.6 190.3 451.5L180.7 468.1 167.4 468.2 176.3 455.9 161.3 457.6 168 446 187.2 446C188.4 445.9 188.8 445.1 188.9 444.4 188.9 443.6 188.3 442.9 187.3 442.7L169.8 442.9 174.1 435.4 182.7 435.2C183.7 435.4 184.4 434.8 184.4 433.6 184.4 432.9 183.7 432.1 182.6 432.2L176 432.1 181.6 422.4C182.1 421.6 181.8 420.7 181 420.2S179.3 420 178.8 420.8L173.2 430.5 169.8 424.9C169.3 423.8 168.3 423.6 167.7 424 166.7 424.5 166.5 425.5 167.2 426.3L171.3 433.8 167 441.3 158.4 426C157.8 425.3 156.8 425.1 156.2 425.5 155.1 426 154.9 427 155.6 427.7L165.2 444.4 158.5 456 152.5 442.2 146.3 456 139.7 444.4 149.3 427.8C149.8 427 149.3 425.9 148.7 425.6 147.9 425.1 147 425.4 146.5 426.2L137.7 441.4 133.3 433.7 137.6 426.2C138.1 425.4 137.9 424.5 137 424 136.5 423.7 135.3 423.8 134.9 424.6L131.5 430.5 125.9 420.9C125.4 419.9 124.4 419.7 123.6 420.4 123.1 420.8 122.6 421.6 123.2 422.4L128.7 432.2 121.9 432.3C121.2 432.3 120.5 432.9 120.4 433.7 120.4 434.4 120.8 435 121 435.1 121.3 435.3 121.6 435.5 122 435.3L130.5 435.4 135.1 442.9 117.4 442.7C116.6 442.9 115.8 443.6 115.8 444.3 115.7 445 116.1 445.6 116.7 445.9 117 446.1 117 446.1 117.4 446L136.9 446.1 143.5 457.7 128.3 455.9 137.4 468.2 124.1 468.3 114.2 451.5C113.8 450.9 113 450.4 111.9 450.9 111.3 451.3 111.1 452.3 111.4 453.2L120.3 468.4 111.6 468.1 107.3 460.8C107.1 460 106.1 459.8 105.1 460.3 104.5 460.7 104.3 461.7 104.5 462.5L107.9 468.2 96.7 468.4C95.7 468.2 95.2 469 95 470 95.1 470.4 95.5 471 95.8 471.2 96.1 471.3 96.4 471.5 96.8 471.4L107.8 471.5 104.5 477.3C104 478.1 104.5 479.2 105.1 479.5L105.1 479.5C105.9 480 106.8 479.7 107.2 478.9L111.6 471.4 120.3 471.6 111.7 486.6C111.2 487.4 111.4 488.3 112.2 488.8S113.9 489 114.4 488.2L124 471.6 137.4 471.5 128.5 483.7 143.5 482.1 136.8 493.7 117.5 493.7C116.4 493.8 115.9 494.6 115.9 495.3 115.8 496 116.5 496.8 117.5 497L134.8 497 130.7 504.2 122.1 504.4C121.1 504.2 120.3 504.9 120.4 506.1 120.3 506.8 121 507.5 122 507.7L128.8 507.6 123.2 517.3C122.7 518.1 122.9 519 123.7 519.5S125.4 519.7 125.9 518.9L131.5 509.2 134.9 514.8C135 515.3 135.3 515.4 135.6 515.6 136.1 515.9 136.6 515.8 137 515.7 138 515.1 138.3 514.2 137.6 513.4L133.4 505.8 137.8 498.4 146.3 513.6C146.6 513.8 146.9 514 147.1 514.1 147.7 514.4 148.1 514.3 148.6 514.2 149.6 513.7 149.8 512.7 149.1 511.9L139.5 495.3 146.2 483.7 152.3 497.5 158.4 483.7 165 495.3 155.4 511.9C155 512.7 155.5 513.8 156 514.1 156.9 514.6 157.7 514.3 158.2 513.5L166.9 498.5 171.4 506 167.1 513.4C166.6 514.3 166.9 515.2 167.7 515.6S169.4 515.9 169.9 515L173.2 509.2 178.8 518.7C179 519.2 179.2 519.3 179.5 519.5 179.8 519.7 180.5 519.7 181.1 519.3 181.7 518.9 182.2 518.1 181.5 517.3ZM152.3 489.8L147.4 478.4 135.1 479.8 142.5 469.7 135.2 459.9 147.4 461.1 152.4 449.9 157.3 461.2 169.6 459.8 162.4 469.7 169.6 479.8 157.5 478.3 152.3 489.8Z" fill="rgba(147, 143, 143, 0.58)"></path></g><defs><mask id="SvgjsMask1082"><rect width="1440" height="560" fill="#ffffff"></rect></mask><linearGradient x1="15.28%" y1="-39.29%" x2="84.72%" y2="139.29%" gradientUnits="userSpaceOnUse" id="SvgjsLinearGradient1083"><stop stop-color="#0e2a47" offset="0"></stop><stop stop-color="rgba(96, 64, 230, 1)" offset="1"></stop></linearGradient><filter id="SvgjsFilter1084"><feGaussianBlur stdDeviation="1"></feGaussianBlur></filter></defs></svg>